<svg width="310" height="26" viewBox="0 0 310 26" fill="none" xmlns="http://www.w3.org/2000/svg">
<path d="M8.48712 0.336362C16.5081 3.01002 22.8473 9.34919 25.5209 17.3702C25.5813 17.5599 25.8573 17.5168 25.8573 17.3184L25.8573 1.03497C25.8573 0.465736 25.3916 1.44423e-06 24.8223 1.35892e-06L8.53887 -1.08133e-06C8.3405 -1.11106e-06 8.29738 0.275989 8.48712 0.336362Z" fill="#005B8E"/>
<path d="M1.01812 0.0172312C0.733503 0.00860644 0.47476 0.120727 0.285017 0.301846C0.103897 0.491589 -0.00822453 0.750331 0.000400479 1.03495C0.535131 14.4981 11.3591 25.3221 24.8223 25.8569C25.1069 25.8655 25.3657 25.7534 25.5554 25.5723C25.7365 25.3825 25.8487 25.1238 25.84 24.8392C25.3053 11.376 14.4813 0.551965 1.01812 0.0172312Z" fill="#005B8E"/>
<path d="M53.7345 1.01513C53.2152 14.2027 42.6168 24.801 29.4293 25.3203C29.1644 25.3308 28.9314 25.1134 28.9314 24.8231L28.9314 1.03435C28.9314 0.74874 29.1629 0.517205 29.4485 0.517205L53.2373 0.517208C53.5276 0.517208 53.7449 0.750223 53.7345 1.01513Z" stroke="#4B615F" stroke-width="1.03429"/>
<path d="M57.8469 0.0173086C57.5623 0.00868383 57.3036 0.120804 57.1138 0.301923C56.9327 0.491667 56.8206 0.750408 56.8292 1.03502C57.3639 14.4982 68.188 25.3222 81.6511 25.857C81.9357 25.8656 82.1945 25.7535 82.3842 25.5723C82.5653 25.3826 82.6775 25.1239 82.6688 24.8392C82.1341 11.3761 71.3101 0.552043 57.8469 0.0173086Z" fill="#1F6161"/>
<path d="M86.261 0.0173086C85.9764 0.00868383 85.7176 0.120804 85.5279 0.301923C85.3468 0.491667 85.2346 0.750408 85.2433 1.03502C85.778 14.4982 96.602 25.3222 110.065 25.857C110.35 25.8656 110.609 25.7535 110.798 25.5723C110.979 25.3826 111.092 25.1239 111.083 24.8392C110.548 11.3761 99.7242 0.552043 86.261 0.0173086Z" fill="#8BC4C1"/>
<path d="M139.178 8.48725C136.504 16.5082 130.165 22.8474 122.144 25.5211C121.954 25.5814 121.998 25.8574 122.196 25.8574L138.479 25.8574C139.049 25.8574 139.514 25.3917 139.514 24.8225L139.514 8.53899C139.514 8.34063 139.238 8.2975 139.178 8.48725Z" fill="#8BC4C1"/>
<path d="M139.497 1.01824C139.506 0.733625 139.394 0.474882 139.213 0.285139C139.023 0.104019 138.764 -0.0081025 138.479 0.000522504C125.016 0.535252 114.192 11.3593 113.658 24.8224C113.649 25.1071 113.761 25.3658 113.942 25.5555C114.132 25.7367 114.391 25.8488 114.675 25.8402C128.138 25.3054 138.962 14.4814 139.497 1.01824Z" fill="#8BC4C1"/>
<path d="M166.91 25.8401C167.195 25.8487 167.454 25.7366 167.644 25.5555C167.825 25.3658 167.937 25.107 167.928 24.8224C167.393 11.3592 156.569 0.535202 143.106 0.000465546C142.822 -0.00815762 142.563 0.103962 142.373 0.28508C142.192 0.474823 142.08 0.733566 142.088 1.01818C142.623 14.4814 153.447 25.3054 166.91 25.8401Z" fill="#1F6161"/>
<path d="M170.503 24.8392C170.494 25.1238 170.606 25.3826 170.787 25.5723C170.977 25.7535 171.236 25.8656 171.52 25.857C184.984 25.3222 195.808 14.4982 196.342 1.03503C196.351 0.750415 196.239 0.491673 196.058 0.30193C195.868 0.120811 195.609 0.0086903 195.325 0.0173149C181.862 0.552043 171.038 11.3761 170.503 24.8392Z" fill="#EA2F00"/>
<path d="M223.722 0.0203569C210.265 0.550306 199.45 11.3648 198.92 24.8219C198.898 25.3927 199.363 25.8574 199.934 25.8574L223.723 25.8574C224.294 25.8574 224.757 25.3943 224.757 24.8231L224.757 1.0343C224.757 0.463073 224.293 -0.0021208 223.722 0.0203569Z" fill="#005B8E"/>
<path d="M253.151 24.8219C252.621 11.3648 241.807 0.550304 228.349 0.0203506C227.779 -0.00212729 227.314 0.463068 227.314 1.03429L227.314 24.8231C227.314 25.3943 227.777 25.8574 228.348 25.8574L252.137 25.8574C252.708 25.8574 253.174 25.3927 253.151 24.8219Z" fill="#F86200"/>
<path d="M256.266 24.8423C256.785 11.6548 267.383 1.05643 280.571 0.537104C280.836 0.526671 281.069 0.743998 281.069 1.0343L281.069 24.8231C281.069 25.1087 280.837 25.3402 280.552 25.3402L256.763 25.3402C256.473 25.3402 256.255 25.1072 256.266 24.8423Z" stroke="#1F6161" stroke-width="1.03429"/>
<path d="M285.158 0.537097C298.345 1.05643 308.944 11.6548 309.463 24.8423C309.473 25.1072 309.256 25.3402 308.966 25.3402L285.177 25.3402C284.891 25.3402 284.66 25.1087 284.66 24.8231L284.66 1.03429C284.66 0.743993 284.893 0.526665 285.158 0.537097Z" stroke="#005B8E" stroke-width="1.03429"/>
</svg>
