<svg width="135" height="40" viewBox="0 0 135 40" fill="none" xmlns="http://www.w3.org/2000/svg">
<path d="M54.0728 26.4043H56.2883V21.1676H61.4518V19.1168H56.2883V15.6562H61.818V13.5871H54.0728V26.4043Z" fill="#1F1F1E"/>
<path d="M67.4093 26.6423C69.0755 26.6423 69.9178 25.7817 70.284 25.1958H70.4488C70.522 25.8184 70.9615 26.4043 71.8221 26.4043H73.4517V24.5733H73.0305C72.7376 24.5733 72.5911 24.4085 72.5911 24.1521V16.8097H70.4305V17.9816H70.2657C69.8446 17.3957 68.9657 16.5717 67.3544 16.5717C64.7909 16.5717 62.8867 18.6957 62.8867 21.607C62.8867 24.5183 64.8276 26.6423 67.4093 26.6423ZM67.7938 24.555C66.2741 24.555 65.0839 23.438 65.0839 21.6253C65.0839 19.8492 66.2374 18.6408 67.7755 18.6408C69.2403 18.6408 70.4671 19.7211 70.4671 21.6253C70.4671 23.2549 69.4234 24.555 67.7938 24.555Z" fill="#1F1F1E"/>
<path d="M77.7059 15.3266C78.4933 15.3266 79.0792 14.7407 79.0792 13.9717C79.0792 13.2209 78.4933 12.635 77.7059 12.635C76.9186 12.635 76.3327 13.2209 76.3327 13.9717C76.3327 14.7407 76.9186 15.3266 77.7059 15.3266ZM76.6073 26.4043H78.7679V16.8097H74.9228V18.714H76.6073V26.4043Z" fill="#1F1F1E"/>
<path d="M81.588 26.4043H83.7486V21.6619C83.7486 19.8492 84.5909 18.7323 86.1655 18.7323H87.1177V16.5717H86.4036C85.1768 16.5717 84.243 17.414 83.8768 18.2196H83.7303V16.8097H81.588V26.4043Z" fill="#1F1F1E"/>
<path d="M93.6309 26.4043H95.3154V24.4817H93.6492C92.99 24.4817 92.7154 24.1887 92.7154 23.5113V18.714H95.4253V16.8097H92.7154V14.1181H90.6646V16.8097H88.8702V18.714H90.5365V23.5296C90.5365 25.562 91.7632 26.4043 93.6309 26.4043Z" fill="#1F1F1E"/>
<path d="M99.8651 15.3266C100.652 15.3266 101.238 14.7407 101.238 13.9717C101.238 13.2209 100.652 12.635 99.8651 12.635C99.0777 12.635 98.4918 13.2209 98.4918 13.9717C98.4918 14.7407 99.0777 15.3266 99.8651 15.3266ZM98.7665 26.4043H100.927V16.8097H97.0819V18.714H98.7665V26.4043Z" fill="#1F1F1E"/>
<path d="M103.432 26.4043H109.181V24.5H107.387V12.6716H103.432V14.5942H105.226V24.5H103.432V26.4043Z" fill="#1F1F1E"/>
<path d="M113.169 15.3266C113.956 15.3266 114.542 14.7407 114.542 13.9717C114.542 13.2209 113.956 12.635 113.169 12.635C112.381 12.635 111.795 13.2209 111.795 13.9717C111.795 14.7407 112.381 15.3266 113.169 15.3266ZM112.07 26.4043H114.231V16.8097H110.385V18.714H112.07V26.4043Z" fill="#1F1F1E"/>
<path d="M121.221 26.4043H122.906V24.4817H121.24C120.58 24.4817 120.306 24.1887 120.306 23.5113V18.714H123.016V16.8097H120.306V14.1181H118.255V16.8097H116.461V18.714H118.127V23.5296C118.127 25.562 119.354 26.4043 121.221 26.4043Z" fill="#1F1F1E"/>
<path d="M125.337 30.6156H126.71C128.12 30.6156 129.237 30.048 129.749 28.7297L134.254 16.8097H131.91L129.42 24.3352H129.255L127.003 16.8097H124.677L127.973 26.4043H128.504L127.973 27.7409C127.735 28.3452 127.369 28.6381 126.71 28.6381H125.337V30.6156Z" fill="#1F1F1E"/>
<path d="M14.0171 39.9897C20.776 39.7235 26.2077 34.2919 26.4738 27.533C26.4851 27.2463 26.2515 27.0129 25.9646 27.0129L14.0166 27.0129C13.7297 27.0129 13.4971 27.2455 13.4971 27.5324L13.4971 39.4804C13.4971 39.7673 13.7304 40.001 14.0171 39.9897Z" fill="#ED7600"/>
<path d="M27.523 26.4829C34.2819 26.2167 39.7135 20.7851 39.9797 14.0261C39.991 13.7395 39.7573 13.5061 39.4704 13.5061L27.5224 13.5061C27.2355 13.5061 27.0029 13.7387 27.0029 14.0256L27.0029 25.9736C27.0029 26.2605 27.2363 26.4942 27.523 26.4829Z" fill="#ED7600"/>
<path d="M27.523 12.9768C34.2819 12.7106 39.7135 7.27897 39.9797 0.520046C39.991 0.233368 39.7573 1.33701e-06 39.4704 1.30566e-06L27.5224 0C27.2355 -3.13521e-08 27.0029 0.232579 27.0029 0.51948L27.0029 12.4675C27.0029 12.7544 27.2363 12.9881 27.523 12.9768Z" fill="#F86200"/>
<path d="M12.4571 27.0231C5.69819 27.2893 0.266564 32.7209 0.000392649 39.4798C-0.010897 39.7665 0.22275 39.9999 0.50965 39.9999H12.4577C12.7446 39.9999 12.9772 39.7673 12.9772 39.4804V27.5324C12.9772 27.2455 12.7438 27.0118 12.4571 27.0231Z" fill="#005B8E"/>
<path d="M12.4571 13.5168C5.69819 13.7829 0.266564 19.2145 0.000392649 25.9735C-0.010897 26.2601 0.22275 26.4935 0.50965 26.4935H12.4577C12.7446 26.4935 12.9772 26.2609 12.9772 25.974V14.026C12.9772 13.7391 12.7438 13.5055 12.4571 13.5168Z" fill="#009898"/>
<path d="M25.9635 0.0101583C19.2045 0.276329 13.7729 5.70796 13.5067 12.4669C13.4955 12.7536 13.7291 12.9869 14.016 12.9869H25.964C26.2509 12.9869 26.4835 12.7543 26.4835 12.4674V0.519416C26.4835 0.232515 26.2501 -0.00113132 25.9635 0.0101583Z" fill="#E84D09"/>
<path d="M25.9635 13.5165C19.2045 13.7827 13.7729 19.2143 13.5067 25.9732C13.4955 26.2599 13.7291 26.4933 14.016 26.4933H25.964C26.2509 26.4933 26.4835 26.2607 26.4835 25.9738V14.0258C26.4835 13.7389 26.2501 13.5052 25.9635 13.5165Z" fill="#E84D09"/>
</svg>
