<svg width="168" height="50" viewBox="0 0 168 50" fill="none" xmlns="http://www.w3.org/2000/svg">
<path d="M67.5907 33.0053H70.3601V26.4594H76.8145V23.896H70.3601V19.5702H77.2722V16.9839H67.5907V33.0053Z" fill="#ECFAEC"/>
<path d="M84.2614 33.3029C86.3442 33.3029 87.397 32.2271 87.8548 31.4947H88.0608C88.1523 32.2729 88.7017 33.0053 89.7774 33.0053H91.8144V30.7165H91.288C90.9218 30.7165 90.7387 30.5106 90.7387 30.1901V21.0121H88.0379V22.4769H87.8319C87.3055 21.7445 86.2069 20.7146 84.1928 20.7146C80.9885 20.7146 78.6081 23.3696 78.6081 27.0087C78.6081 30.6479 81.0342 33.3029 84.2614 33.3029ZM84.7421 30.6937C82.8424 30.6937 81.3547 29.2975 81.3547 27.0316C81.3547 24.8115 82.7966 23.3009 84.7192 23.3009C86.5502 23.3009 88.0837 24.6513 88.0837 27.0316C88.0837 29.0686 86.7791 30.6937 84.7421 30.6937Z" fill="#ECFAEC"/>
<path d="M97.1322 19.1582C98.1164 19.1582 98.8488 18.4258 98.8488 17.4645C98.8488 16.5261 98.1164 15.7937 97.1322 15.7937C96.148 15.7937 95.4156 16.5261 95.4156 17.4645C95.4156 18.4258 96.148 19.1582 97.1322 19.1582ZM95.759 33.0053H98.4597V21.0121H93.6533V23.3925H95.759V33.0053Z" fill="#ECFAEC"/>
<path d="M101.985 33.0053H104.686V27.0774C104.686 24.8115 105.738 23.4153 107.707 23.4153H108.897V20.7146H108.004C106.471 20.7146 105.304 21.7674 104.846 22.7745H104.663V21.0121H101.985V33.0053Z" fill="#ECFAEC"/>
<path d="M117.038 33.0053H119.144V30.6021H117.061C116.237 30.6021 115.894 30.2359 115.894 29.3891V23.3925H119.281V21.0121H115.894V17.6476H113.331V21.0121H111.088V23.3925H113.17V29.4119C113.17 31.9525 114.704 33.0053 117.038 33.0053Z" fill="#ECFAEC"/>
<path d="M124.831 19.1582C125.815 19.1582 126.548 18.4258 126.548 17.4645C126.548 16.5261 125.815 15.7937 124.831 15.7937C123.847 15.7937 123.115 16.5261 123.115 17.4645C123.115 18.4258 123.847 19.1582 124.831 19.1582ZM123.458 33.0053H126.159V21.0121H121.352V23.3925H123.458V33.0053Z" fill="#ECFAEC"/>
<path d="M129.29 33.0053H136.476V30.625H134.233V15.8395H129.29V18.2427H131.533V30.625H129.29V33.0053Z" fill="#ECFAEC"/>
<path d="M141.461 19.1582C142.445 19.1582 143.177 18.4258 143.177 17.4645C143.177 16.5261 142.445 15.7937 141.461 15.7937C140.476 15.7937 139.744 16.5261 139.744 17.4645C139.744 18.4258 140.476 19.1582 141.461 19.1582ZM140.087 33.0053H142.788V21.0121H137.982V23.3925H140.087V33.0053Z" fill="#ECFAEC"/>
<path d="M151.527 33.0053H153.632V30.6021H151.55C150.726 30.6021 150.382 30.2359 150.382 29.3891V23.3925H153.77V21.0121H150.382V17.6476H147.819V21.0121H145.576V23.3925H147.659V29.4119C147.659 31.9525 149.192 33.0053 151.527 33.0053Z" fill="#ECFAEC"/>
<path d="M156.671 38.2695H158.387C160.15 38.2695 161.546 37.56 162.187 35.9121L167.817 21.0121H164.887L161.775 30.419H161.569L158.753 21.0121H155.847L159.966 33.0053H160.63L159.966 34.6761C159.669 35.4314 159.211 35.7976 158.387 35.7976H156.671V38.2695Z" fill="#ECFAEC"/>
<path d="M17.5209 49.9873C25.9696 49.6546 32.7591 42.8651 33.0918 34.4164C33.106 34.0581 32.8139 33.7664 32.4553 33.7664L17.5202 33.7664C17.1616 33.7664 16.8709 34.0571 16.8709 34.4157L16.8708 49.3508C16.8708 49.7094 17.1626 50.0015 17.5209 49.9873Z" fill="#ED7600"/>
<path d="M34.404 33.1038C42.8526 32.7711 49.6422 25.9815 49.9749 17.5329C49.989 17.1745 49.6969 16.8828 49.3383 16.8828L34.4033 16.8828C34.0446 16.8828 33.7539 17.1735 33.7539 17.5322L33.7539 32.4672C33.7539 32.8259 34.0456 33.1179 34.404 33.1038Z" fill="#ED7600"/>
<path d="M34.404 16.221C42.8526 15.8883 49.6422 9.09873 49.9749 0.650058C49.989 0.29171 49.6969 1.67127e-06 49.3383 1.63208e-06L34.4033 0C34.0446 -3.91902e-08 33.7539 0.290724 33.7539 0.649351L33.7539 15.5844C33.7539 15.943 34.0456 16.2351 34.404 16.221Z" fill="#F86200"/>
<path d="M15.5714 33.7791C7.12275 34.1118 0.333206 40.9013 0.000490812 49.35C-0.0136212 49.7083 0.278438 50 0.637064 50H15.5721C15.9308 50 16.2215 49.7093 16.2215 49.3507V34.4156C16.2215 34.057 15.9298 33.7649 15.5714 33.7791Z" fill="#005B8E"/>
<path d="M15.5714 16.896C7.12275 17.2287 0.333206 24.0183 0.000490812 32.4669C-0.0136212 32.8253 0.278438 33.117 0.637064 33.117H15.5721C15.9308 33.117 16.2215 32.8263 16.2215 32.4676V17.5326C16.2215 17.1739 15.9298 16.8819 15.5714 16.896Z" fill="#009898"/>
<path d="M32.4545 0.0126978C24.0058 0.345412 17.2163 7.13496 16.8835 15.5836C16.8694 15.942 17.1615 16.2337 17.5201 16.2337H32.4552C32.8138 16.2337 33.1045 15.943 33.1045 15.5843V0.649271C33.1045 0.290645 32.8128 -0.00141418 32.4545 0.0126978Z" fill="#E84D09"/>
<path d="M32.4545 16.8958C24.0058 17.2285 17.2163 24.018 16.8835 32.4667C16.8694 32.825 17.1615 33.1167 17.5201 33.1167H32.4552C32.8138 33.1167 33.1045 32.826 33.1045 32.4674V17.5323C33.1045 17.1737 32.8128 16.8816 32.4545 16.8958Z" fill="#E84D09"/>
</svg>
