<svg width="138" height="120" viewBox="0 0 138 120" fill="none" xmlns="http://www.w3.org/2000/svg">
<path d="M0 112.791H3.79274V103.826H12.632V100.315H3.79274V94.3912H13.2589V90.8492H0V112.791Z" fill="#ECFAEC"/>
<path d="M22.8306 113.198C25.683 113.198 27.1249 111.725 27.7518 110.722H28.0339C28.1593 111.788 28.9115 112.791 30.3848 112.791H33.1745V109.656H32.4535C31.952 109.656 31.7013 109.374 31.7013 108.935V96.3659H28.0025V98.372H27.7204C26.9995 97.3689 25.4949 95.9584 22.7366 95.9584C18.3483 95.9584 15.0884 99.5944 15.0884 104.578C15.0884 109.562 18.411 113.198 22.8306 113.198ZM23.4889 109.625C20.8872 109.625 18.8498 107.713 18.8498 104.61C18.8498 101.569 20.8245 99.5004 23.4575 99.5004C25.9651 99.5004 28.0652 101.35 28.0652 104.61C28.0652 107.399 26.2786 109.625 23.4889 109.625Z" fill="#ECFAEC"/>
<path d="M40.4573 93.8269C41.8051 93.8269 42.8081 92.8239 42.8081 91.5074C42.8081 90.2223 41.8051 89.2192 40.4573 89.2192C39.1094 89.2192 38.1064 90.2223 38.1064 91.5074C38.1064 92.8239 39.1094 93.8269 40.4573 93.8269ZM38.5766 112.791H42.2753V96.3659H35.6928V99.6258H38.5766V112.791Z" fill="#ECFAEC"/>
<path d="M47.1029 112.791H50.8016V104.672C50.8016 101.569 52.2435 99.6571 54.9391 99.6571H56.5691V95.9584H55.3466C53.2465 95.9584 51.6479 97.4003 51.021 98.7794H50.7703V96.3659H47.1029V112.791Z" fill="#ECFAEC"/>
<path d="M67.7189 112.791H70.6027V109.499H67.7503C66.6219 109.499 66.1517 108.998 66.1517 107.838V99.6258H70.7907V96.3659H66.1517V91.7582H62.6411V96.3659H59.5693V99.6258H62.4216V107.869C62.4216 111.349 64.5218 112.791 67.7189 112.791Z" fill="#ECFAEC"/>
<path d="M78.3912 93.8269C79.739 93.8269 80.742 92.8239 80.742 91.5074C80.742 90.2223 79.739 89.2192 78.3912 89.2192C77.0433 89.2192 76.0403 90.2223 76.0403 91.5074C76.0403 92.8239 77.0433 93.8269 78.3912 93.8269ZM76.5105 112.791H80.2092V96.3659H73.6267V99.6258H76.5105V112.791Z" fill="#ECFAEC"/>
<path d="M84.4971 112.791H94.3394V109.531H91.2676V89.2819H84.4971V92.5731H87.5689V109.531H84.4971V112.791Z" fill="#ECFAEC"/>
<path d="M101.165 93.8269C102.513 93.8269 103.516 92.8239 103.516 91.5074C103.516 90.2223 102.513 89.2192 101.165 89.2192C99.8174 89.2192 98.8143 90.2223 98.8143 91.5074C98.8143 92.8239 99.8174 93.8269 101.165 93.8269ZM99.2845 112.791H102.983V96.3659H96.4008V99.6258H99.2845V112.791Z" fill="#ECFAEC"/>
<path d="M114.951 112.791H117.834V109.499H114.982C113.854 109.499 113.383 108.998 113.383 107.838V99.6258H118.022V96.3659H113.383V91.7582H109.873V96.3659H106.801V99.6258H109.653V107.869C109.653 111.349 111.753 112.791 114.951 112.791Z" fill="#ECFAEC"/>
<path d="M121.995 120H124.346C126.76 120 128.672 119.028 129.55 116.771L137.26 96.3659H133.248L128.985 109.249H128.703L124.848 96.3659H120.867L126.509 112.791H127.418L126.509 115.079C126.102 116.113 125.475 116.615 124.346 116.615H121.995V120Z" fill="#ECFAEC"/>
<path d="M58.6704 67.3874C70.06 66.9389 79.2129 57.786 79.6615 46.3964C79.6805 45.9133 79.2868 45.52 78.8033 45.52L58.6695 45.52C58.186 45.52 57.7941 45.9119 57.7941 46.3954L57.7941 66.5293C57.7941 67.0127 58.1873 67.4064 58.6704 67.3874Z" fill="#ED7600"/>
<path d="M81.4303 44.6274C92.8199 44.1789 101.973 35.0259 102.421 23.6363C102.44 23.1533 102.047 22.76 101.563 22.76L81.4293 22.76C80.9459 22.76 80.554 23.1519 80.554 23.6354L80.554 43.7693C80.554 44.2527 80.9472 44.6464 81.4303 44.6274Z" fill="#ED7600"/>
<path d="M81.4303 21.8674C92.8199 21.4189 101.973 12.2659 102.421 0.876339C102.44 0.393252 102.047 2.25303e-06 101.563 2.2002e-06L81.4293 0C80.9459 -5.2832e-08 80.554 0.391923 80.554 0.875385L80.554 21.0092C80.554 21.4927 80.9472 21.8864 81.4303 21.8674Z" fill="#F86200"/>
<path d="M56.042 45.5373C44.6524 45.9858 35.4995 55.1388 35.051 66.5283C35.0319 67.0114 35.4257 67.4047 35.9091 67.4047H56.043C56.5264 67.4047 56.9184 67.0128 56.9184 66.5293V46.3954C56.9184 45.912 56.5251 45.5183 56.042 45.5373Z" fill="#005B8E"/>
<path d="M56.042 22.7773C44.6524 23.2258 35.4995 32.3787 35.051 43.7683C35.0319 44.2514 35.4257 44.6447 35.9091 44.6447H56.043C56.5264 44.6447 56.9184 44.2528 56.9184 43.7693V23.6354C56.9184 23.152 56.5251 22.7582 56.042 22.7773Z" fill="#009898"/>
<path d="M78.802 0.0172632C67.4124 0.465793 58.2595 9.61873 57.811 21.0083C57.7919 21.4914 58.1857 21.8847 58.6691 21.8847H78.803C79.2864 21.8847 79.6784 21.4927 79.6784 21.0093V0.875424C79.6784 0.391962 79.2851 -0.00176109 78.802 0.0172632Z" fill="#E84D09"/>
<path d="M78.802 22.7773C67.4124 23.2258 58.2595 32.3787 57.811 43.7683C57.7919 44.2514 58.1857 44.6447 58.6691 44.6447H78.803C79.2864 44.6447 79.6784 44.2528 79.6784 43.7693V23.6354C79.6784 23.152 79.2851 22.7582 78.802 22.7773Z" fill="#E84D09"/>
</svg>
