<svg width="56" height="233" viewBox="0 0 56 233" fill="none" xmlns="http://www.w3.org/2000/svg">
<path d="M37.5634 55.1896C20.218 49.4078 6.50946 35.6993 0.727642 18.3538C0.597085 17.9435 0.000252933 18.0367 0.000252832 18.4657L0.000244476 53.6789C0.000244184 54.9098 1.0074 55.917 2.23837 55.917L37.4515 55.917C37.8805 55.917 37.9737 55.3202 37.5634 55.1896Z" fill="#005B8E"/>
<path d="M53.7152 55.8797C54.3307 55.8984 54.8902 55.6559 55.3006 55.2643C55.6922 54.8539 55.9347 54.2944 55.916 53.6789C54.7597 24.5647 31.3526 1.15761 2.23839 0.00123534C1.62291 -0.0174158 1.06337 0.225044 0.653052 0.616716C0.26138 1.02704 0.0189187 1.58657 0.0375696 2.20205C1.19393 31.3163 24.601 54.7234 53.7152 55.8797Z" fill="#005B8E"/>
<path d="M0.037493 112.632C0.0188418 113.248 0.261303 113.807 0.652974 114.217C1.0633 114.609 1.62283 114.852 2.23831 114.833C31.3526 113.677 54.7596 90.2696 55.916 61.1553C55.9346 60.5398 55.6922 59.9803 55.3005 59.57C54.8902 59.1783 54.3307 58.9359 53.7152 58.9545C24.6009 60.1109 1.19387 83.5179 0.037493 112.632Z" fill="#009898"/>
<path d="M2.20207 117.871C1.58659 117.853 1.02706 118.095 0.616734 118.487C0.225062 118.897 -0.0174033 119.457 0.00124763 120.072C1.15761 149.187 24.5647 172.594 53.6789 173.75C54.2944 173.769 54.8539 173.526 55.2642 173.134C55.6559 172.724 55.8984 172.165 55.8797 171.549C54.7234 142.435 31.3163 119.028 2.20207 117.871Z" fill="#ED7600"/>
<path d="M55.873 230.429C54.7269 201.328 31.3405 177.941 2.2393 176.795C1.00497 176.747 0.000194487 177.753 0.00019441 178.988L0.000191198 230.431C0.000191121 231.667 1.00158 232.668 2.23686 232.668L53.6803 232.668C54.9156 232.668 55.9216 231.663 55.873 230.429Z" fill="#EA2F00"/>
</svg>
