<svg width="350" height="58" viewBox="0 0 350 58" fill="none" xmlns="http://www.w3.org/2000/svg">
<path d="M1.09394 0.0185641C0.787947 0.00929148 0.509771 0.129833 0.305775 0.324556C0.111052 0.528552 -0.00949292 0.806728 -0.000219413 1.11272C0.574676 15.5871 12.2117 27.2242 26.6861 27.7991C26.9921 27.8083 27.2703 27.6878 27.4743 27.4931C27.669 27.2891 27.7895 27.0109 27.7803 26.7049C27.2054 12.2305 15.5684 0.593463 1.09394 0.0185641Z" fill="#E84D09"/>
<path d="M54.9551 26.6034C41.92 25.5718 31.5193 15.1711 30.4877 2.13595C30.4465 1.61558 30.8769 1.11201 31.5155 1.11201L54.8671 1.11201C55.4812 1.11201 55.9791 1.60987 55.9791 2.224L55.9791 25.5756C55.9791 26.2141 55.4755 26.6446 54.9551 26.6034Z" stroke="#EA2F00" stroke-width="2.22396"/>
<path d="M59.7787 25.6636C60.8103 12.6285 71.211 2.22779 84.2461 1.19616C84.7665 1.15497 85.2701 1.58544 85.2701 2.22397L85.2701 25.5756C85.2701 26.1897 84.7722 26.6876 84.1581 26.6876L60.8065 26.6876C60.1679 26.6875 59.7375 26.184 59.7787 25.6636Z" stroke="#8BC4C1" stroke-width="2.22396"/>
<path d="M115.311 9.12518C112.436 17.7486 105.621 24.5639 96.9975 27.4384C96.7935 27.5033 96.8399 27.8 97.0531 27.8L114.56 27.8C115.172 27.8 115.672 27.2993 115.672 26.6873L115.672 9.18082C115.672 8.96755 115.376 8.92119 115.311 9.12518Z" fill="#1F6161"/>
<path d="M115.654 1.09517C115.663 0.789179 115.543 0.511002 115.348 0.307007C115.144 0.112284 114.866 -0.00826081 114.56 0.00101268C100.085 0.575905 88.4482 12.2129 87.8733 26.6873C87.8641 26.9933 87.9846 27.2715 88.1793 27.4755C88.3833 27.6702 88.6615 27.7908 88.9675 27.7815C103.442 27.2066 115.079 15.5696 115.654 1.09517Z" fill="#1F6161"/>
<path d="M144.945 1.09516C144.954 0.789164 144.834 0.510986 144.639 0.306992C144.435 0.112268 144.157 -0.00827607 143.851 0.000997427C129.376 0.57589 117.739 12.2129 117.164 26.6873C117.155 26.9933 117.276 27.2715 117.47 27.4755C117.674 27.6702 117.952 27.7908 118.258 27.7815C132.733 27.2066 144.37 15.5696 144.945 1.09516Z" fill="#EA2F00"/>
<path d="M174.166 25.5759C173.092 11.9959 162.258 1.1624 148.678 0.0876363C147.454 -0.0092688 146.454 0.9957 146.454 2.22396L146.454 25.5756C146.454 26.8038 147.45 27.7995 148.678 27.7995L172.03 27.7995C173.258 27.7995 174.263 26.8003 174.166 25.5759Z" fill="#ECFAEC"/>
<path d="M201.322 0.0876428C187.742 1.1624 176.908 11.9959 175.834 25.5759C175.737 26.8003 176.742 27.7995 177.97 27.7995L201.322 27.7995C202.55 27.7995 203.546 26.8038 203.546 25.5756L203.546 2.22397C203.546 0.995709 202.546 -0.00926196 201.322 0.0876428Z" fill="#ED7600"/>
<path d="M223.712 27.4379C215.089 24.5634 208.273 17.7481 205.399 9.12469C205.334 8.92069 205.037 8.96705 205.037 9.18032L205.037 26.6869C205.037 27.2988 205.538 27.7996 206.15 27.7996L223.656 27.7996C223.87 27.7996 223.916 27.5028 223.712 27.4379Z" fill="#8BC4C1"/>
<path d="M231.742 27.781C232.048 27.7903 232.326 27.6698 232.53 27.475C232.725 27.271 232.845 26.9929 232.836 26.6869C232.261 12.2125 220.624 0.57544 206.15 0.000539946C205.844 -0.00873363 205.566 0.111809 205.362 0.306532C205.167 0.510527 205.046 0.788704 205.056 1.0947C205.631 15.5691 217.268 27.2061 231.742 27.781Z" fill="#8BC4C1"/>
<path d="M262.109 1.09467C262.118 0.788675 261.998 0.510498 261.803 0.306503C261.599 0.11178 261.321 -0.00876435 261.015 0.000509146C246.54 0.575402 234.903 12.2124 234.328 26.6868C234.319 26.9928 234.44 27.271 234.634 27.475C234.838 27.6697 235.117 27.7903 235.423 27.781C249.897 27.2061 261.534 15.5691 262.109 1.09467Z" fill="#ECFAEC"/>
<path d="M290.222 2.13595C289.19 15.171 278.789 25.5718 265.754 26.6034C265.234 26.6446 264.73 26.2141 264.73 25.5756L264.73 2.22399C264.73 1.60986 265.228 1.11201 265.842 1.11201L289.194 1.11201C289.833 1.11201 290.263 1.61557 290.222 2.13595Z" stroke="#8BC4C1" stroke-width="2.22396"/>
<path d="M311.585 27.4384C302.961 24.5639 296.146 17.7486 293.271 9.12518C293.206 8.92118 292.91 8.96754 292.91 9.18081L292.91 26.6873C292.91 27.2993 293.41 27.8 294.022 27.8L311.529 27.8001C311.742 27.8001 311.789 27.5033 311.585 27.4384Z" fill="#F86200"/>
<path d="M319.615 27.7815C319.921 27.7908 320.199 27.6703 320.403 27.4755C320.597 27.2715 320.718 26.9934 320.709 26.6874C320.134 12.213 308.497 0.575928 294.022 0.00102823C293.716 -0.00824535 293.438 0.112297 293.234 0.30702C293.039 0.511015 292.919 0.789192 292.928 1.09518C293.503 15.5696 305.14 27.2066 319.615 27.7815Z" fill="#F86200"/>
<path d="M323.295 0.0190523C322.989 0.00977976 322.711 0.130321 322.507 0.325044C322.312 0.52904 322.192 0.807216 322.201 1.11321C322.776 15.5876 334.413 27.2246 348.887 27.7995C349.193 27.8088 349.471 27.6883 349.675 27.4936C349.87 27.2896 349.991 27.0114 349.981 26.7054C349.407 12.231 337.77 0.593951 323.295 0.0190523Z" fill="#ECFAEC"/>
<path d="M1.09443 29.3096C0.788435 29.3003 0.51026 29.4208 0.306263 29.6156C0.11154 29.8196 -0.00900464 30.0977 0.000268868 30.4037C0.575164 44.8782 12.2122 56.5152 26.6866 57.0901C26.9926 57.0993 27.2708 56.9788 27.4748 56.7841C27.6695 56.5801 27.79 56.3019 27.7807 55.9959C27.2059 41.5215 15.5688 29.8845 1.09443 29.3096Z" fill="#ED7600"/>
<path d="M31.5144 57.0029C45.0945 55.9282 55.9279 45.0947 57.0027 31.5147C57.0996 30.2903 56.0946 29.291 54.8664 29.291L31.5148 29.291C30.2865 29.291 29.2908 30.2867 29.2908 31.515L29.2908 54.8666C29.2908 56.0949 30.29 57.0998 31.5144 57.0029Z" fill="#8BC4C1"/>
<path d="M58.6697 31.5147C59.7444 45.0947 70.5779 55.9282 84.1579 57.0029C85.3823 57.0998 86.3816 56.0949 86.3816 54.8666L86.3816 31.515C86.3816 30.2868 85.3859 29.2911 84.1576 29.291L60.806 29.291C59.5777 29.291 58.5728 30.2903 58.6697 31.5147Z" fill="#ED7600"/>
<path d="M90.0088 30.4877C103.044 31.5193 113.445 41.92 114.476 54.9551C114.517 55.4755 114.087 55.9791 113.448 55.9791L90.0968 55.9791C89.4827 55.9791 88.9848 55.4812 88.9848 54.8671L88.9848 31.5155C88.9848 30.8769 89.4884 30.4465 90.0088 30.4877Z" stroke="#009898" stroke-width="2.22396"/>
<path d="M144.875 54.8669C143.8 41.2869 132.967 30.4534 119.387 29.3787C118.163 29.2817 117.163 30.2867 117.163 31.515L117.163 54.8666C117.163 56.0948 118.159 57.0905 119.387 57.0905L142.739 57.0905C143.967 57.0905 144.972 56.0913 144.875 54.8669Z" fill="#ED7600"/>
<path d="M165.129 56.729C156.506 53.8545 149.691 47.0392 146.816 38.4157C146.751 38.2117 146.455 38.2581 146.455 38.4713L146.455 55.9779C146.455 56.5899 146.955 57.0906 147.567 57.0906L165.074 57.0906C165.287 57.0906 165.333 56.7939 165.129 56.729Z" fill="#8BC4C1"/>
<path d="M173.159 57.0721C173.465 57.0813 173.744 56.9608 173.948 56.7661C174.142 56.5621 174.263 56.2839 174.254 55.9779C173.679 41.5035 162.042 29.8665 147.567 29.2916C147.261 29.2823 146.983 29.4028 146.779 29.5975C146.584 29.8015 146.464 30.0797 146.473 30.3857C147.048 44.8601 158.685 56.4972 173.159 57.0721Z" fill="#8BC4C1"/>
<path d="M202.349 31.427C201.317 44.4621 190.916 54.8628 177.881 55.8944C177.361 55.9356 176.857 55.5051 176.857 54.8666L176.857 31.515C176.857 30.9009 177.355 30.403 177.969 30.403L201.321 30.403C201.959 30.403 202.39 30.9066 202.349 31.427Z" stroke="#ED7600" stroke-width="2.22396"/>
<path d="M205.125 31.5147C206.2 45.0947 217.033 55.9282 230.613 57.0029C231.837 57.0998 232.837 56.0949 232.837 54.8666L232.837 31.515C232.837 30.2868 231.841 29.2911 230.613 29.291L207.261 29.291C206.033 29.291 205.028 30.2903 205.125 31.5147Z" fill="#009898"/>
<path d="M235.524 54.9546C236.556 41.9195 246.957 31.5188 259.992 30.4872C260.512 30.446 261.016 30.8765 261.016 31.515L261.016 54.8666C261.016 55.4807 260.518 55.9786 259.904 55.9786L236.552 55.9786C235.914 55.9786 235.483 55.475 235.524 54.9546Z" stroke="#005B8E" stroke-width="2.22396"/>
<path d="M263.637 55.9959C263.627 56.3019 263.748 56.5801 263.943 56.7841C264.147 56.9788 264.425 57.0993 264.731 57.0901C279.205 56.5152 290.842 44.8782 291.417 30.4037C291.426 30.0978 291.306 29.8196 291.111 29.6156C290.907 29.4209 290.629 29.3003 290.323 29.3096C275.849 29.8845 264.212 41.5215 263.637 55.9959Z" fill="#ED7600"/>
<path d="M311.585 56.7294C302.961 53.855 296.146 47.0396 293.271 38.4162C293.206 38.2122 292.91 38.2586 292.91 38.4718L292.91 55.9784C292.91 56.5903 293.41 57.0911 294.022 57.0911L311.529 57.0911C311.742 57.0911 311.789 56.7943 311.585 56.7294Z" fill="#F86200"/>
<path d="M319.615 57.0725C319.921 57.0818 320.199 56.9613 320.403 56.7665C320.597 56.5626 320.718 56.2844 320.709 55.9784C320.134 41.504 308.497 29.8669 294.022 29.292C293.716 29.2828 293.438 29.4033 293.234 29.598C293.039 29.802 292.919 30.0802 292.928 30.3862C293.503 44.8606 305.14 56.4976 319.615 57.0725Z" fill="#F86200"/>
<path d="M348.804 31.4275C347.772 44.4626 337.371 54.8633 324.336 55.8949C323.816 55.9361 323.312 55.5056 323.312 54.8671L323.312 31.5155C323.312 30.9014 323.81 30.4035 324.424 30.4035L347.776 30.4035C348.415 30.4035 348.845 30.9071 348.804 31.4275Z" stroke="#EA2F00" stroke-width="2.22396"/>
</svg>
