<svg width="1647" height="115" viewBox="0 0 1647 115" fill="none" xmlns="http://www.w3.org/2000/svg">
<path d="M2.20183 0.0371338C1.58635 0.0184827 1.02681 0.260944 0.616489 0.652615C0.224819 1.06294 -0.0176469 1.62247 0.00100313 2.23795C1.15736 31.3522 24.5644 54.7593 53.6787 55.9156C54.2941 55.9343 54.8537 55.6918 55.264 55.3001C55.6557 54.8898 55.8981 54.3303 55.8795 53.7148C54.7231 24.6005 31.3161 1.1935 2.20183 0.0371338Z" fill="#E84D09"/>
<path d="M112.638 54.7553C84.1203 53.6322 61.2013 30.7132 60.0782 2.19505C60.0557 1.62218 60.5257 1.11829 61.1534 1.11829L112.597 1.11829C113.215 1.11829 113.715 1.61899 113.715 2.23663L113.715 53.6801C113.715 54.3079 113.211 54.7778 112.638 54.7553Z" stroke="#EA2F00" stroke-width="2.23667"/>
<path d="M118.995 53.7217C120.118 25.2036 143.037 2.28455 171.555 1.16149C172.128 1.13893 172.632 1.60891 172.632 2.23668L172.632 53.6801C172.632 54.2978 172.131 54.7985 171.514 54.7985L120.07 54.7985C119.442 54.7985 118.972 54.2946 118.995 53.7217Z" stroke="#8BC4C1" stroke-width="2.23667"/>
<path d="M231.94 18.3536C226.158 35.699 212.449 49.4075 195.104 55.1894C194.693 55.3199 194.787 55.9167 195.216 55.9167L230.429 55.9167C231.66 55.9167 232.667 54.9096 232.667 53.6786L232.667 18.4655C232.667 18.0365 232.07 17.9432 231.94 18.3536Z" fill="#1F6161"/>
<path d="M232.63 2.20177C232.648 1.58629 232.406 1.02676 232.014 0.616432C231.604 0.224758 231.044 -0.0177042 230.429 0.000945807C201.315 1.1573 177.908 24.5643 176.751 53.6786C176.733 54.2941 176.975 54.8536 177.367 55.2639C177.777 55.6556 178.337 55.8981 178.952 55.8794C208.066 54.7231 231.473 31.316 232.63 2.20177Z" fill="#1F6161"/>
<path d="M291.546 2.20171C291.565 1.58622 291.323 1.02669 290.931 0.616367C290.521 0.224697 289.961 -0.017769 289.346 0.000880961C260.231 1.15724 236.824 24.5643 235.668 53.6785C235.649 54.294 235.892 54.8536 236.283 55.2639C236.694 55.6556 237.253 55.898 237.869 55.8794C266.983 54.723 290.39 31.316 291.546 2.20171Z" fill="#EA2F00"/>
<path d="M350.456 53.6777C349.31 24.5765 325.924 1.19004 296.823 0.0440083C295.588 -0.00460029 294.584 1.00139 294.584 2.23667L294.584 53.6801C294.584 54.9154 295.585 55.9168 296.82 55.9168L348.264 55.9168C349.499 55.9168 350.505 54.912 350.456 53.6777Z" fill="#ECFAEC"/>
<path d="M407.178 0.0440222C378.077 1.19005 354.691 24.5765 353.544 53.6777C353.496 54.912 354.502 55.9168 355.737 55.9168L407.181 55.9168C408.416 55.9168 409.417 54.9154 409.417 53.6801L409.417 2.23668C409.417 1.0014 408.413 -0.00458617 407.178 0.0440222Z" fill="#ED7600"/>
<path d="M449.98 55.1894C432.635 49.4075 418.926 35.699 413.145 18.3536C413.014 17.9432 412.417 18.0365 412.417 18.4655L412.417 53.6786C412.417 54.9096 413.424 55.9167 414.655 55.9167L449.869 55.9168C450.297 55.9168 450.391 55.3199 449.98 55.1894Z" fill="#8BC4C1"/>
<path d="M466.132 55.8795C466.748 55.8981 467.307 55.6557 467.718 55.264C468.109 54.8537 468.352 54.2942 468.333 53.6787C467.177 24.5644 443.77 1.15736 414.655 0.000992157C414.04 -0.0176618 413.48 0.2248 413.07 0.61647C412.678 1.02679 412.436 1.58633 412.455 2.20181C413.611 31.3161 437.018 54.7231 466.132 55.8795Z" fill="#8BC4C1"/>
<path d="M527.213 2.20171C527.232 1.58622 526.99 1.02669 526.598 0.616367C526.188 0.224697 525.628 -0.017769 525.013 0.000880961C495.898 1.15724 472.491 24.5643 471.335 53.6785C471.316 54.294 471.559 54.8536 471.95 55.2639C472.361 55.6556 472.92 55.898 473.536 55.8794C502.65 54.723 526.057 31.316 527.213 2.20171Z" fill="#ECFAEC"/>
<path d="M585.006 2.19505C583.883 30.7132 560.964 53.6322 532.446 54.7553C531.873 54.7778 531.369 54.3078 531.369 53.6801L531.369 2.23662C531.369 1.61898 531.87 1.11828 532.487 1.11828L583.931 1.11829C584.559 1.11829 585.029 1.62218 585.006 2.19505Z" stroke="#8BC4C1" stroke-width="2.23667"/>
<path d="M626.731 55.1894C609.385 49.4075 595.677 35.699 589.895 18.3536C589.764 17.9432 589.167 18.0365 589.167 18.4655L589.167 53.6786C589.167 54.9096 590.175 55.9167 591.406 55.9167L626.619 55.9168C627.048 55.9168 627.141 55.3199 626.731 55.1894Z" fill="#F86200"/>
<path d="M642.882 55.8795C643.498 55.8981 644.057 55.6557 644.468 55.264C644.859 54.8537 645.102 54.2942 645.083 53.6787C643.927 24.5644 620.52 1.15736 591.406 0.000992157C590.79 -0.0176618 590.231 0.2248 589.82 0.61647C589.429 1.02679 589.186 1.58633 589.205 2.20181C590.361 31.3161 613.768 54.7231 642.882 55.8795Z" fill="#F86200"/>
<path d="M650.286 0.0371338C649.67 0.0184827 649.111 0.260944 648.701 0.652615C648.309 1.06294 648.066 1.62247 648.085 2.23795C649.241 31.3522 672.649 54.7593 701.763 55.9156C702.378 55.9343 702.938 55.6918 703.348 55.3001C703.74 54.8898 703.982 54.3303 703.964 53.7148C702.807 24.6005 679.4 1.1935 650.286 0.0371338Z" fill="#ECFAEC"/>
<path d="M761.756 2.19505C760.633 30.7132 737.714 53.6322 709.196 54.7553C708.623 54.7778 708.119 54.3078 708.119 53.6801L708.119 2.23662C708.119 1.61898 708.62 1.11828 709.238 1.11828L760.681 1.11829C761.309 1.11829 761.779 1.62218 761.756 2.19505Z" stroke="#009898" stroke-width="2.23667"/>
<path d="M784.271 0.727387C801.617 6.50921 815.325 20.2177 821.107 37.5632C821.238 37.9735 821.834 37.8802 821.834 37.4513L821.834 2.23813C821.834 1.00716 820.827 3.12316e-06 819.596 2.93869e-06L784.383 -2.33838e-06C783.954 -2.40267e-06 783.861 0.596829 784.271 0.727387Z" fill="#EA2F00"/>
<path d="M768.119 0.0372626C767.504 0.0186115 766.944 0.261073 766.534 0.652744C766.142 1.06307 765.9 1.6226 765.919 2.23808C767.075 31.3523 790.482 54.7594 819.596 55.9158C820.212 55.9344 820.771 55.6919 821.182 55.3003C821.573 54.89 821.816 54.3304 821.797 53.7149C820.641 24.6007 797.234 1.19363 768.119 0.0372626Z" fill="#EA2F00"/>
<path d="M878.55 55.8794C879.165 55.898 879.725 55.6556 880.135 55.2639C880.527 54.8536 880.769 54.294 880.75 53.6786C879.594 24.5643 856.187 1.15725 827.073 0.00087771C826.457 -0.0177763 825.898 0.224686 825.487 0.616356C825.096 1.02668 824.853 1.58621 824.872 2.20169C826.028 31.316 849.435 54.723 878.55 55.8794Z" fill="#009898"/>
<path d="M937.429 0.0440222C908.328 1.19005 884.941 24.5765 883.795 53.6777C883.747 54.912 884.753 55.9168 885.988 55.9168L937.431 55.9168C938.667 55.9168 939.668 54.9154 939.668 53.6801L939.668 2.23668C939.668 1.0014 938.663 -0.00458617 937.429 0.0440222Z" fill="#005B8E"/>
<path d="M996.39 54.7553C967.872 53.6322 944.953 30.7132 943.829 2.19505C943.807 1.62218 944.277 1.11829 944.905 1.11829L996.348 1.11829C996.966 1.11829 997.466 1.61899 997.466 2.23663L997.466 53.6801C997.466 54.3079 996.963 54.7778 996.39 54.7553Z" stroke="#8BC4C1" stroke-width="2.23667"/>
<path d="M1002.31 37.5632C1008.09 20.2177 1021.8 6.50921 1039.15 0.727399C1039.56 0.596842 1039.46 1.04485e-05 1039.04 1.0328e-05L1003.82 4.33239e-07C1002.59 8.73433e-08 1001.58 1.00716 1001.58 2.23812L1001.58 37.4513C1001.58 37.8802 1002.18 37.9735 1002.31 37.5632Z" fill="#ECFAEC"/>
<path d="M1001.62 53.715C1001.6 54.3305 1001.85 54.89 1002.24 55.3003C1002.65 55.692 1003.21 55.9345 1003.82 55.9158C1032.94 54.7594 1056.34 31.3524 1057.5 2.23815C1057.52 1.62266 1057.28 1.06313 1056.88 0.65281C1056.47 0.261138 1055.92 0.018677 1055.3 0.0373278C1026.19 1.19368 1002.78 24.6007 1001.62 53.715Z" fill="#ECFAEC"/>
<path d="M1061.23 37.5632C1067.01 20.2177 1080.72 6.50921 1098.06 0.727399C1098.47 0.596842 1098.38 1.04485e-05 1097.95 1.0328e-05L1062.74 4.33239e-07C1061.51 8.73433e-08 1060.5 1.00716 1060.5 2.23812L1060.5 37.4513C1060.5 37.8802 1061.1 37.9735 1061.23 37.5632Z" fill="#E84D09"/>
<path d="M1060.54 53.715C1060.52 54.3305 1060.76 54.89 1061.15 55.3003C1061.56 55.692 1062.12 55.9345 1062.74 55.9158C1091.85 54.7594 1115.26 31.3524 1116.42 2.23815C1116.44 1.62266 1116.19 1.06313 1115.8 0.65281C1115.39 0.261138 1114.83 0.018677 1114.22 0.0373278C1085.1 1.19368 1061.7 24.6007 1060.54 53.715Z" fill="#E84D09"/>
<path d="M1121.62 0.0371338C1121 0.0184827 1120.44 0.260944 1120.03 0.652615C1119.64 1.06294 1119.4 1.62247 1119.42 2.23795C1120.58 31.3522 1143.98 54.7593 1173.1 55.9156C1173.71 55.9343 1174.27 55.6918 1174.68 55.3001C1175.07 54.8898 1175.32 54.3303 1175.3 53.7148C1174.14 24.6005 1150.73 1.1935 1121.62 0.0371338Z" fill="#1F6161"/>
<path d="M1233.52 18.3536C1227.74 35.699 1214.03 49.4075 1196.69 55.1894C1196.28 55.3199 1196.37 55.9167 1196.8 55.9167L1232.01 55.9167C1233.24 55.9167 1234.25 54.9096 1234.25 53.6786L1234.25 18.4655C1234.25 18.0365 1233.65 17.9432 1233.52 18.3536Z" fill="#ECFAEC"/>
<path d="M1234.21 2.20177C1234.23 1.58629 1233.99 1.02676 1233.6 0.616432C1233.19 0.224758 1232.63 -0.0177042 1232.01 0.000945807C1202.9 1.1573 1179.49 24.5643 1178.34 53.6786C1178.32 54.2941 1178.56 54.8536 1178.95 55.2639C1179.36 55.6556 1179.92 55.8981 1180.54 55.8794C1209.65 54.7231 1233.06 31.316 1234.21 2.20177Z" fill="#ECFAEC"/>
<path d="M1238.41 53.7217C1239.54 25.2036 1262.46 2.28455 1290.97 1.16149C1291.55 1.13893 1292.05 1.60891 1292.05 2.23668L1292.05 53.6801C1292.05 54.2978 1291.55 54.7985 1290.93 54.7985L1239.49 54.7985C1238.86 54.7985 1238.39 54.2946 1238.41 53.7217Z" stroke="#005B8E" stroke-width="2.23667"/>
<path d="M1349.88 55.8794C1350.5 55.898 1351.06 55.6556 1351.47 55.2639C1351.86 54.8536 1352.1 54.294 1352.08 53.6786C1350.93 24.5643 1327.52 1.15725 1298.41 0.00087771C1297.79 -0.0177763 1297.23 0.224686 1296.82 0.616356C1296.43 1.02668 1296.19 1.58621 1296.21 2.20169C1297.36 31.316 1320.77 54.723 1349.88 55.8794Z" fill="#8BC4C1"/>
<path d="M1355.13 2.23906C1356.28 31.3403 1379.66 54.7267 1408.76 55.8727C1410 55.9214 1411 54.9154 1411 53.6801L1411 2.23663C1411 1.00135 1410 -4.13614e-05 1408.77 -4.15465e-05L1357.32 -4.92559e-05C1356.09 -4.9441e-05 1355.08 1.00473 1355.13 2.23906Z" fill="#ED7600"/>
<path d="M1468.76 2.19505C1467.63 30.7132 1444.72 53.6322 1416.2 54.7553C1415.62 54.7778 1415.12 54.3078 1415.12 53.6801L1415.12 2.23662C1415.12 1.61898 1415.62 1.11828 1416.24 1.11828L1467.68 1.11829C1468.31 1.11829 1468.78 1.62218 1468.76 2.19505Z" stroke="#1F6161" stroke-width="2.23667"/>
<path d="M1526.64 54.7553C1498.12 53.6322 1475.2 30.7132 1474.08 2.19505C1474.06 1.62218 1474.53 1.11829 1475.16 1.11829L1526.6 1.11829C1527.22 1.11829 1527.72 1.61899 1527.72 2.23663L1527.72 53.6801C1527.72 54.3079 1527.21 54.7778 1526.64 54.7553Z" stroke="#009898" stroke-width="2.23667"/>
<path d="M1585.51 0.0440222C1556.41 1.19005 1533.03 24.5765 1531.88 53.6777C1531.83 54.912 1532.84 55.9168 1534.07 55.9168L1585.52 55.9168C1586.75 55.9168 1587.75 54.9154 1587.75 53.6801L1587.75 2.23668C1587.75 1.0014 1586.75 -0.00458617 1585.51 0.0440222Z" fill="#E84D09"/>
<path d="M1591.48 37.5632C1597.26 20.2177 1610.97 6.50921 1628.32 0.727399C1628.73 0.596842 1628.63 1.04485e-05 1628.2 1.0328e-05L1592.99 4.33239e-07C1591.76 8.73433e-08 1590.75 1.00716 1590.75 2.23812L1590.75 37.4513C1590.75 37.8802 1591.35 37.9735 1591.48 37.5632Z" fill="#ECFAEC"/>
<path d="M1590.79 53.715C1590.77 54.3305 1591.01 54.89 1591.4 55.3003C1591.82 55.692 1592.37 55.9345 1592.99 55.9158C1622.1 54.7594 1645.51 31.3524 1646.67 2.23815C1646.69 1.62266 1646.44 1.06313 1646.05 0.65281C1645.64 0.261138 1645.08 0.018677 1644.47 0.0373278C1615.35 1.19368 1591.95 24.6007 1590.79 53.715Z" fill="#ECFAEC"/>
<path d="M2.20183 58.9541C1.58635 58.9355 1.02681 59.1779 0.616489 59.5696C0.224819 59.9799 -0.0176469 60.5395 0.00100313 61.1549C1.15736 90.2692 24.5644 113.676 53.6787 114.833C54.2941 114.851 54.8537 114.609 55.264 114.217C55.6557 113.807 55.8981 113.247 55.8795 112.632C54.7231 83.5175 31.3161 60.1105 2.20183 58.9541Z" fill="#ED7600"/>
<path d="M61.1558 114.79C90.257 113.644 113.643 90.2573 114.789 61.156C114.838 59.9217 113.832 58.9169 112.597 58.9169L61.1534 58.9169C59.9181 58.9169 58.9167 59.9183 58.9167 61.1536L58.9167 112.597C58.9167 113.832 59.9215 114.838 61.1558 114.79Z" fill="#8BC4C1"/>
<path d="M117.878 61.1561C119.024 90.2573 142.41 113.644 171.511 114.79C172.746 114.838 173.75 113.832 173.75 112.597L173.75 61.1536C173.75 59.9183 172.749 58.917 171.514 58.917L120.07 58.9169C118.835 58.9169 117.829 59.9217 117.878 61.1561Z" fill="#ED7600"/>
<path d="M178.945 60.0785C207.463 61.2015 230.382 84.1205 231.506 112.639C231.528 113.212 231.058 113.715 230.43 113.715L178.987 113.715C178.369 113.715 177.869 113.215 177.869 112.597L177.869 61.1537C177.869 60.5259 178.372 60.0559 178.945 60.0785Z" stroke="#009898" stroke-width="2.23667"/>
<path d="M291.54 112.595C290.394 83.4935 267.007 60.107 237.906 58.961C236.672 58.9124 235.667 59.9184 235.667 61.1537L235.667 112.597C235.667 113.832 236.668 114.834 237.904 114.834L289.347 114.834C290.582 114.834 291.588 113.829 291.54 112.595Z" fill="#ED7600"/>
<path d="M332.147 114.106C314.801 108.325 301.093 94.616 295.311 77.2706C295.181 76.8602 294.584 76.9535 294.584 77.3825L294.584 112.596C294.584 113.827 295.591 114.834 296.822 114.834L332.035 114.834C332.464 114.834 332.557 114.237 332.147 114.106Z" fill="#8BC4C1"/>
<path d="M348.299 114.796C348.914 114.815 349.474 114.573 349.884 114.181C350.276 113.771 350.518 113.211 350.5 112.596C349.343 83.4814 325.936 60.0744 296.822 58.918C296.206 58.8993 295.647 59.1418 295.237 59.5335C294.845 59.9438 294.602 60.5033 294.621 61.1188C295.777 90.2331 319.184 113.64 348.299 114.796Z" fill="#8BC4C1"/>
<path d="M408.256 61.112C407.133 89.6302 384.214 112.549 355.696 113.672C355.123 113.695 354.619 113.225 354.619 112.597L354.619 61.1536C354.619 60.536 355.119 60.0353 355.737 60.0353L407.181 60.0353C407.808 60.0353 408.278 60.5392 408.256 61.112Z" stroke="#ED7600" stroke-width="2.23667"/>
<path d="M412.461 61.1561C413.607 90.2573 436.994 113.644 466.095 114.79C467.329 114.838 468.334 113.832 468.334 112.597L468.334 61.1536C468.334 59.9183 467.333 58.917 466.097 58.917L414.654 58.9169C413.419 58.9169 412.413 59.9217 412.461 61.1561Z" fill="#009898"/>
<path d="M472.495 112.639C473.619 84.1205 496.538 61.2015 525.056 60.0785C525.629 60.0559 526.132 60.5259 526.132 61.1537L526.132 112.597C526.132 113.215 525.632 113.715 525.014 113.715L473.571 113.715C472.943 113.715 472.473 113.212 472.495 112.639Z" stroke="#005B8E" stroke-width="2.23667"/>
<path d="M530.288 112.632C530.269 113.248 530.512 113.807 530.904 114.217C531.314 114.609 531.873 114.852 532.489 114.833C561.603 113.677 585.01 90.2695 586.167 61.1552C586.185 60.5397 585.943 59.9802 585.551 59.5699C585.141 59.1782 584.581 58.9357 583.966 58.9544C554.852 60.1107 531.444 83.5178 530.288 112.632Z" fill="#ED7600"/>
<path d="M626.731 114.106C609.385 108.325 595.677 94.616 589.895 77.2706C589.764 76.8602 589.167 76.9535 589.167 77.3825L589.167 112.596C589.167 113.827 590.175 114.834 591.406 114.834L626.619 114.834C627.048 114.834 627.141 114.237 626.731 114.106Z" fill="#F86200"/>
<path d="M642.882 114.796C643.498 114.815 644.057 114.573 644.468 114.181C644.859 113.771 645.102 113.211 645.083 112.596C643.927 83.4814 620.52 60.0744 591.406 58.918C590.79 58.8993 590.231 59.1418 589.82 59.5335C589.429 59.9438 589.186 60.5033 589.205 61.1188C590.361 90.2331 613.768 113.64 642.882 114.796Z" fill="#F86200"/>
<path d="M702.84 61.112C701.716 89.6302 678.797 112.549 650.279 113.672C649.706 113.695 649.203 113.225 649.203 112.597L649.203 61.1536C649.203 60.536 649.703 60.0353 650.321 60.0353L701.764 60.0353C702.392 60.0353 702.862 60.5392 702.84 61.112Z" stroke="#EA2F00" stroke-width="2.23667"/>
<path d="M744.564 114.106C727.219 108.325 713.51 94.616 707.728 77.2706C707.598 76.8602 707.001 76.9535 707.001 77.3825L707.001 112.596C707.001 113.827 708.008 114.834 709.239 114.834L744.452 114.834C744.881 114.834 744.974 114.237 744.564 114.106Z" fill="#005B8E"/>
<path d="M760.716 114.796C761.331 114.815 761.891 114.573 762.301 114.181C762.693 113.771 762.935 113.211 762.917 112.596C761.76 83.4814 738.353 60.0744 709.239 58.918C708.624 58.8993 708.064 59.1418 707.654 59.5335C707.262 59.9438 707.02 60.5033 707.038 61.1188C708.195 90.2331 731.602 113.64 760.716 114.796Z" fill="#005B8E"/>
<path d="M767.079 112.639C768.202 84.1205 791.121 61.2015 819.639 60.0785C820.212 60.0559 820.716 60.5259 820.716 61.1537L820.716 112.597C820.716 113.215 820.215 113.715 819.598 113.715L768.154 113.715C767.527 113.715 767.057 113.212 767.079 112.639Z" stroke="#ECFAEC" stroke-width="2.23667"/>
<path d="M827.074 114.79C856.175 113.644 879.561 90.2573 880.707 61.156C880.756 59.9217 879.75 58.9169 878.515 58.9169L827.071 58.9169C825.836 58.9169 824.834 59.9183 824.834 61.1536L824.834 112.597C824.834 113.832 825.839 114.838 827.074 114.79Z" fill="#ECFAEC"/>
<path d="M937.473 113.672C908.955 112.549 886.036 89.6302 884.913 61.112C884.89 60.5392 885.36 60.0353 885.988 60.0353L937.431 60.0353C938.049 60.0353 938.55 60.536 938.55 61.1536L938.55 112.597C938.55 113.225 938.046 113.695 937.473 113.672Z" stroke="#EA2F00" stroke-width="2.23667"/>
<path d="M997.423 61.112C996.3 89.6302 973.381 112.549 944.863 113.672C944.29 113.695 943.786 113.225 943.786 112.597L943.786 61.1536C943.786 60.536 944.287 60.0353 944.905 60.0353L996.348 60.0353C996.976 60.0353 997.446 60.5392 997.423 61.112Z" stroke="#ECFAEC" stroke-width="2.23667"/>
<path d="M1003.78 60.0785C1032.3 61.2015 1055.22 84.1205 1056.34 112.639C1056.36 113.212 1055.89 113.715 1055.26 113.715L1003.82 113.715C1003.2 113.715 1002.7 113.215 1002.7 112.597L1002.7 61.1537C1002.7 60.5259 1003.21 60.0559 1003.78 60.0785Z" stroke="#8BC4C1" stroke-width="2.23667"/>
<path d="M1062.7 60.0785C1091.21 61.2015 1114.13 84.1205 1115.26 112.639C1115.28 113.212 1114.81 113.715 1114.18 113.715L1062.74 113.715C1062.12 113.715 1061.62 113.215 1061.62 112.597L1061.62 61.1537C1061.62 60.5259 1062.12 60.0559 1062.7 60.0785Z" stroke="#ED7600" stroke-width="2.23667"/>
<path d="M1121.61 60.0785C1150.13 61.2015 1173.05 84.1205 1174.17 112.639C1174.2 113.212 1173.73 113.715 1173.1 113.715L1121.65 113.715C1121.04 113.715 1120.54 113.215 1120.54 112.597L1120.54 61.1537C1120.54 60.5259 1121.04 60.0559 1121.61 60.0785Z" stroke="#ECFAEC" stroke-width="2.23667"/>
<path d="M1180.57 114.79C1209.68 113.644 1233.06 90.2573 1234.21 61.156C1234.26 59.9217 1233.25 58.9169 1232.02 58.9169L1180.57 58.9169C1179.34 58.9169 1178.33 59.9183 1178.33 61.1536L1178.33 112.597C1178.33 113.832 1179.34 114.838 1180.57 114.79Z" fill="#009898"/>
<path d="M1239.49 114.79C1268.59 113.644 1291.98 90.2573 1293.12 61.156C1293.17 59.9217 1292.17 58.9169 1290.93 58.9169L1239.49 58.9169C1238.25 58.9169 1237.25 59.9183 1237.25 61.1536L1237.25 112.597C1237.25 113.832 1238.26 114.838 1239.49 114.79Z" fill="#ECFAEC"/>
<path d="M1349.88 114.796C1350.5 114.815 1351.06 114.573 1351.47 114.181C1351.86 113.771 1352.1 113.211 1352.08 112.596C1350.93 83.4813 1327.52 60.0742 1298.41 58.9179C1297.79 58.8992 1297.23 59.1417 1296.82 59.5333C1296.43 59.9437 1296.19 60.5032 1296.21 61.1187C1297.36 90.2329 1320.77 113.64 1349.88 114.796Z" fill="#8BC4C1"/>
<path d="M1357.32 114.79C1386.43 113.644 1409.81 90.2573 1410.96 61.156C1411.01 59.9217 1410 58.9169 1408.77 58.9169L1357.32 58.9169C1356.09 58.9169 1355.09 59.9183 1355.09 61.1536L1355.09 112.597C1355.09 113.832 1356.09 114.838 1357.32 114.79Z" fill="#ECFAEC"/>
<path d="M1451.57 114.106C1434.22 108.325 1420.51 94.616 1414.73 77.2706C1414.6 76.8602 1414 76.9535 1414 77.3825L1414 112.596C1414 113.827 1415.01 114.834 1416.24 114.834L1451.45 114.834C1451.88 114.834 1451.98 114.237 1451.57 114.106Z" fill="#ECFAEC"/>
<path d="M1467.72 114.796C1468.33 114.815 1468.89 114.573 1469.3 114.181C1469.69 113.771 1469.94 113.211 1469.92 112.596C1468.76 83.4814 1445.35 60.0744 1416.24 58.918C1415.62 58.8993 1415.07 59.1418 1414.65 59.5335C1414.26 59.9438 1414.02 60.5033 1414.04 61.1188C1415.2 90.2331 1438.6 113.64 1467.72 114.796Z" fill="#ECFAEC"/>
<path d="M1491.27 59.6444C1508.62 65.4262 1522.33 79.1347 1528.11 96.4802C1528.24 96.8905 1528.84 96.7972 1528.84 96.3683L1528.84 61.1551C1528.84 59.9242 1527.83 58.917 1526.6 58.917L1491.38 58.917C1490.96 58.917 1490.86 59.5138 1491.27 59.6444Z" fill="#8BC4C1"/>
<path d="M1475.12 58.9543C1474.5 58.9356 1473.95 59.1781 1473.54 59.5697C1473.14 59.9801 1472.9 60.5396 1472.92 61.1551C1474.08 90.2693 1497.48 113.676 1526.6 114.833C1527.21 114.851 1527.77 114.609 1528.18 114.217C1528.57 113.807 1528.82 113.247 1528.8 112.632C1527.64 83.5177 1504.23 60.1106 1475.12 58.9543Z" fill="#8BC4C1"/>
<path d="M1550.19 59.6444C1567.53 65.4262 1581.24 79.1347 1587.02 96.4802C1587.16 96.8905 1587.75 96.7972 1587.75 96.3683L1587.75 61.1551C1587.75 59.9242 1586.75 58.917 1585.51 58.917L1550.3 58.917C1549.87 58.917 1549.78 59.5138 1550.19 59.6444Z" fill="#F86200"/>
<path d="M1534.04 58.9543C1533.42 58.9356 1532.86 59.1781 1532.45 59.5697C1532.06 59.9801 1531.82 60.5396 1531.84 61.1551C1532.99 90.2693 1556.4 113.676 1585.51 114.833C1586.13 114.851 1586.69 114.609 1587.1 114.217C1587.49 113.807 1587.73 113.247 1587.71 112.632C1586.56 83.5177 1563.15 60.1106 1534.04 58.9543Z" fill="#F86200"/>
<path d="M1644.47 114.796C1645.08 114.815 1645.64 114.573 1646.05 114.181C1646.44 113.771 1646.69 113.211 1646.67 112.596C1645.51 83.4813 1622.1 60.0742 1592.99 58.9179C1592.37 58.8992 1591.82 59.1417 1591.41 59.5333C1591.01 59.9437 1590.77 60.5032 1590.79 61.1187C1591.95 90.2329 1615.35 113.64 1644.47 114.796Z" fill="#1F6161"/>
</svg>
